<svg width="203" height="138" viewBox="0 0 203 138" fill="none" xmlns="http://www.w3.org/2000/svg">
<g filter="url(#filter0_d_5_5)">
<g filter="url(#filter1_d_5_5)">
<path d="M4 27C4 15.9543 12.9543 7 24 7H178C189.046 7 198 15.9543 198 27V110C198 121.046 189.046 130 178 130H24C12.9543 130 4 121.046 4 110V27Z" fill="#1363DF"/>
</g>
<g filter="url(#filter2_d_5_5)">
<path d="M53.5368 71.795V74.855H42.5718V72.39C42.5718 71.2 42.4018 70.2083 42.0618 69.415C41.7785 68.6217 41.1835 67.8 40.2768 66.95C39.4268 66.1 38.1518 65.08 36.4518 63.89C34.2418 62.2467 32.4001 60.7167 30.9268 59.3C29.4535 57.8267 28.3485 56.24 27.6118 54.54C26.8751 52.84 26.5068 50.8283 26.5068 48.505C26.5068 44.1417 28.1218 40.5433 31.3518 37.71C34.6385 34.8767 39.2285 33.46 45.1218 33.46C48.9751 33.46 52.5168 33.9417 55.7468 34.905C58.9768 35.8683 61.9801 37.115 64.7568 38.645L60.2518 47.74C57.8151 46.4933 55.4351 45.5017 53.1118 44.765C50.7885 44.0283 48.4368 43.66 46.0568 43.66C43.6768 43.66 41.8068 44.1417 40.4468 45.105C39.1435 46.0117 38.4918 47.3717 38.4918 49.185C38.4918 50.375 38.7185 51.4517 39.1718 52.415C39.6818 53.3783 40.4468 54.3417 41.4668 55.305C42.5435 56.2683 43.9318 57.3733 45.6318 58.62C47.5585 59.98 49.0885 61.3117 50.2218 62.615C51.4118 63.9183 52.2618 65.3067 52.7718 66.78C53.2818 68.2533 53.5368 69.925 53.5368 71.795ZM54.8968 89.05C54.8968 91.5433 54.1885 93.3567 52.7718 94.49C51.3551 95.5667 49.6268 96.105 47.5868 96.105C45.6601 96.105 43.9601 95.5667 42.4868 94.49C41.0701 93.3567 40.3618 91.5433 40.3618 89.05C40.3618 86.4433 41.0701 84.63 42.4868 83.61C43.9601 82.5333 45.6601 81.995 47.5868 81.995C49.6268 81.995 51.3551 82.5333 52.7718 83.61C54.1885 84.63 54.8968 86.4433 54.8968 89.05ZM108.222 63.374C105.538 63.2357 102.84 63.1112 100.128 63.0005C97.4445 62.8898 94.7606 62.793 92.0767 62.71C91.7446 68.2161 91.4541 73.7085 91.2051 79.187C90.9561 84.6655 90.7624 90.1855 90.624 95.7471L78.5049 96.9507C78.6709 86.8237 78.7539 76.7936 78.7539 66.8604V62.4609H75.7656C74.1055 62.4609 72.4453 62.4748 70.7852 62.5024C69.125 62.5301 67.4648 62.5439 65.8047 62.5439V52.002C66.5241 52.002 67.2435 52.0158 67.9629 52.0435C68.71 52.0711 69.4709 52.085 70.2456 52.085H78.6709C78.6709 49.5117 78.6571 46.98 78.6294 44.4897C78.6017 41.9718 78.5602 39.4539 78.5049 36.936H94.2349C93.9582 39.4263 93.7091 41.9027 93.4878 44.3652C93.2941 46.8001 93.1143 49.235 92.9482 51.6699C95.5215 51.5592 98.0532 51.4486 100.543 51.3379C103.061 51.1995 105.621 51.0474 108.222 50.8813V63.374ZM128.434 51.6699C127.825 57.8402 127.41 63.9274 127.189 69.9316C126.995 75.9359 126.898 81.9401 126.898 87.9443C126.898 88.9958 126.898 90.061 126.898 91.1401C126.898 92.1916 126.926 93.2568 126.981 94.3359H114.157C114.157 92.6204 114.171 90.9188 114.198 89.231C114.226 87.5431 114.24 85.8691 114.24 84.209C114.24 78.7028 114.101 73.252 113.825 67.8564C113.576 62.4609 113.174 57.0654 112.621 51.6699H128.434ZM128.434 38.2227C128.434 39.1911 128.199 40.1042 127.729 40.9619C127.258 41.792 126.608 42.5252 125.778 43.1616C124.948 43.7703 123.979 44.2684 122.873 44.6558C121.766 45.0155 120.59 45.1953 119.345 45.1953C118.1 45.1953 116.938 45.0155 115.858 44.6558C114.779 44.2684 113.839 43.7703 113.036 43.1616C112.234 42.5252 111.597 41.792 111.127 40.9619C110.657 40.1042 110.421 39.1911 110.421 38.2227C110.421 37.2819 110.657 36.3965 111.127 35.5664C111.597 34.7087 112.234 33.9754 113.036 33.3667C113.839 32.7303 114.779 32.2323 115.858 31.8726C116.938 31.5129 118.1 31.333 119.345 31.333C120.59 31.333 121.766 31.5129 122.873 31.8726C123.979 32.2323 124.948 32.7303 125.778 33.3667C126.608 33.9754 127.258 34.7087 127.729 35.5664C128.199 36.3965 128.434 37.2819 128.434 38.2227ZM151.012 32.4536C150.293 42.8573 149.809 53.2194 149.56 63.54C149.338 73.833 149.228 84.0983 149.228 94.3359H136.278C136.417 89.2448 136.514 84.1951 136.569 79.187C136.624 74.1789 136.652 69.1431 136.652 64.0796C136.652 58.7671 136.624 53.4961 136.569 48.2666C136.514 43.0371 136.417 37.7661 136.278 32.4536H151.012ZM171.977 95H159.567V34.905H171.977V95Z" fill="white"/>
</g>
</g>
<defs>
<filter id="filter0_d_5_5" x="4" y="7" width="199" height="129" filterUnits="userSpaceOnUse" color-interpolation-filters="sRGB">
<feFlood flood-opacity="0" result="BackgroundImageFix"/>
<feColorMatrix in="SourceAlpha" type="matrix" values="0 0 0 0 0 0 0 0 0 0 0 0 0 0 0 0 0 0 127 0" result="hardAlpha"/>
<feOffset dx="4" dy="5"/>
<feGaussianBlur stdDeviation="0.5"/>
<feComposite in2="hardAlpha" operator="out"/>
<feColorMatrix type="matrix" values="0 0 0 0 0 0 0 0 0 0 0 0 0 0 0 0 0 0 0.3 0"/>
<feBlend mode="normal" in2="BackgroundImageFix" result="effect1_dropShadow_5_5"/>
<feBlend mode="normal" in="SourceGraphic" in2="effect1_dropShadow_5_5" result="shape"/>
</filter>
<filter id="filter1_d_5_5" x="0" y="7" width="202" height="131" filterUnits="userSpaceOnUse" color-interpolation-filters="sRGB">
<feFlood flood-opacity="0" result="BackgroundImageFix"/>
<feColorMatrix in="SourceAlpha" type="matrix" values="0 0 0 0 0 0 0 0 0 0 0 0 0 0 0 0 0 0 127 0" result="hardAlpha"/>
<feOffset dy="4"/>
<feGaussianBlur stdDeviation="2"/>
<feComposite in2="hardAlpha" operator="out"/>
<feColorMatrix type="matrix" values="0 0 0 0 0 0 0 0 0 0 0 0 0 0 0 0 0 0 0.25 0"/>
<feBlend mode="normal" in2="BackgroundImageFix" result="effect1_dropShadow_5_5"/>
<feBlend mode="normal" in="SourceGraphic" in2="effect1_dropShadow_5_5" result="shape"/>
</filter>
<filter id="filter2_d_5_5" x="22.5068" y="31.333" width="153.47" height="73.6177" filterUnits="userSpaceOnUse" color-interpolation-filters="sRGB">
<feFlood flood-opacity="0" result="BackgroundImageFix"/>
<feColorMatrix in="SourceAlpha" type="matrix" values="0 0 0 0 0 0 0 0 0 0 0 0 0 0 0 0 0 0 127 0" result="hardAlpha"/>
<feOffset dy="4"/>
<feGaussianBlur stdDeviation="2"/>
<feComposite in2="hardAlpha" operator="out"/>
<feColorMatrix type="matrix" values="0 0 0 0 0 0 0 0 0 0 0 0 0 0 0 0 0 0 0.25 0"/>
<feBlend mode="normal" in2="BackgroundImageFix" result="effect1_dropShadow_5_5"/>
<feBlend mode="normal" in="SourceGraphic" in2="effect1_dropShadow_5_5" result="shape"/>
</filter>
</defs>
</svg>
